<svg width="70" height="71" viewBox="0 0 70 71" fill="none" xmlns="http://www.w3.org/2000/svg">
<rect x="0.342041" y="0.974121" width="69.3463" height="69.3463" rx="34.6732" fill="#FFD282"/>
<path d="M29.5613 44.5361V46.3139C29.5613 47.0144 29.6992 47.7079 29.9673 48.355C30.2353 49.0019 30.6281 49.5898 31.1234 50.0851C31.6187 50.5804 32.2066 50.9733 32.8535 51.2412C33.5007 51.5093 34.1942 51.6472 34.8946 51.6472C35.5951 51.6472 36.2886 51.5093 36.9357 51.2412C37.5826 50.9733 38.1705 50.5804 38.6658 50.0851C39.1611 49.5898 39.554 49.0019 39.8219 48.355C40.09 47.7079 40.2279 47.0144 40.2279 46.3139V44.5361" stroke="black" stroke-width="4" stroke-linecap="round" stroke-linejoin="round"/>
<path d="M49.1168 44.5361C49.1168 44.5361 45.5613 35.6472 45.5613 30.3139C45.5613 24.5041 40.7044 19.6472 34.8946 19.6472C29.0848 19.6472 24.2279 24.5041 24.2279 30.3139C24.2279 37.425 20.6724 44.5361 20.6724 44.5361H49.1168Z" stroke="black" stroke-width="4" stroke-linecap="round" stroke-linejoin="round"/>
</svg>
