<svg width="70" height="70" viewBox="0 0 70 70" fill="none" xmlns="http://www.w3.org/2000/svg">
<rect x="0.342041" width="69.3463" height="69.3463" rx="34.6732" fill="#FFD282"/>
<path d="M43.8135 56.6731C49.7245 56.6731 54.5162 51.8814 54.5162 45.9704C54.5162 40.0594 49.7245 35.2677 43.8135 35.2677C37.9025 35.2677 33.1108 40.0594 33.1108 45.9704C33.1108 51.8814 37.9025 56.6731 43.8135 56.6731Z" stroke="black" stroke-width="4" stroke-linecap="round" stroke-linejoin="round"/>
<path d="M43.8135 41.6895V45.703L45.954 48.1111" stroke="black" stroke-width="4" stroke-linecap="round" stroke-linejoin="round"/>
<path d="M15.273 31.7001H27.1649" stroke="black" stroke-width="4" stroke-linecap="round" stroke-linejoin="round"/>
<path d="M53.327 26.9433V22.1866C53.327 19.5595 51.1974 17.4298 48.5703 17.4298H20.0297C17.4027 17.4298 15.273 19.5595 15.273 22.1866V50.7271C15.273 53.3543 17.4027 55.4839 20.0297 55.4839H27.1649" stroke="black" stroke-width="4" stroke-linecap="round" stroke-linejoin="round"/>
<path d="M41.4352 12.6731V22.1866" stroke="black" stroke-width="4" stroke-linecap="round" stroke-linejoin="round"/>
<path d="M27.1649 12.6731V22.1866" stroke="black" stroke-width="4" stroke-linecap="round" stroke-linejoin="round"/>
</svg>
