<svg width="70" height="71" viewBox="0 0 70 71" fill="none" xmlns="http://www.w3.org/2000/svg">
<rect x="0.207886" y="0.974121" width="69.3463" height="69.3463" rx="34.6732" fill="#FFD282"/>
<path d="M53.0462 19.6472H16.4748C15.8436 19.6472 15.2722 19.9031 14.8585 20.3167C14.4449 20.7303 14.1891 21.3018 14.1891 21.9329V49.3615C14.1891 50.6239 15.2124 51.6472 16.4748 51.6472H53.0462C54.3086 51.6472 55.3319 50.6239 55.3319 49.3615V21.9329C55.3319 21.3018 55.0762 20.7303 54.6625 20.3167C54.2487 19.9031 53.6773 19.6472 53.0462 19.6472Z" stroke="black" stroke-width="4" stroke-linecap="round" stroke-linejoin="round"/>
<path d="M14.8584 20.3165L31.5279 36.9859C33.3131 38.7713 36.2077 38.7713 37.9928 36.9859L54.6623 20.3165" stroke="black" stroke-width="4" stroke-linecap="round" stroke-linejoin="round"/>
</svg>
